<?xml version="1.0" encoding="utf-8" standalone="no"?>
<!DOCTYPE svg PUBLIC "-//W3C//DTD SVG 1.1//EN"
  "http://www.w3.org/Graphics/SVG/1.1/DTD/svg11.dtd">
<svg xmlns:xlink="http://www.w3.org/1999/xlink" width="406.885938pt" height="211.07625pt" viewBox="0 0 406.885938 211.07625" xmlns="http://www.w3.org/2000/svg" version="1.1">
 <metadata>
  <rdf:RDF xmlns:dc="http://purl.org/dc/elements/1.1/" xmlns:cc="http://creativecommons.org/ns#" xmlns:rdf="http://www.w3.org/1999/02/22-rdf-syntax-ns#">
   <cc:Work>
    <dc:type rdf:resource="http://purl.org/dc/dcmitype/StillImage"/>
    <dc:date>2023-09-19T17:30:56.840700</dc:date>
    <dc:format>image/svg+xml</dc:format>
    <dc:creator>
     <cc:Agent>
      <dc:title>Matplotlib v3.5.1, https://matplotlib.org/</dc:title>
     </cc:Agent>
    </dc:creator>
   </cc:Work>
  </rdf:RDF>
 </metadata>
 <defs>
  <style type="text/css">*{stroke-linejoin: round; stroke-linecap: butt}</style>
 </defs>
 <g id="figure_1">
  <g id="patch_1">
   <path d="M 0 211.07625 
L 406.885938 211.07625 
L 406.885938 0 
L 0 0 
z
" style="fill: #ffffff"/>
  </g>
  <g id="axes_1">
   <g id="patch_2">
    <path d="M 52.160938 173.52 
L 386.960938 173.52 
L 386.960938 7.2 
L 52.160938 7.2 
z
" style="fill: #ffffff"/>
   </g>
   <g id="matplotlib.axis_1">
    <g id="xtick_1">
     <g id="line2d_1">
      <path d="M 118.852829 173.52 
L 118.852829 7.2 
" clip-path="url(#p62685213ae)" style="fill: none; stroke: #b0b0b0; stroke-width: 0.8; stroke-linecap: square"/>
     </g>
     <g id="line2d_2">
      <defs>
       <path id="ma0b8d34952" d="M 0 0 
L 0 3.5 
" style="stroke: #000000; stroke-width: 0.8"/>
      </defs>
      <g>
       <use xlink:href="#ma0b8d34952" x="118.852829" y="173.52" style="stroke: #000000; stroke-width: 0.8"/>
      </g>
     </g>
     <g id="text_1">
      <!-- 200 -->
      <g transform="translate(109.309079 188.118438)scale(0.1 -0.1)">
       <defs>
        <path id="DejaVuSans-32" d="M 1228 531 
L 3431 531 
L 3431 0 
L 469 0 
L 469 531 
Q 828 903 1448 1529 
Q 2069 2156 2228 2338 
Q 2531 2678 2651 2914 
Q 2772 3150 2772 3378 
Q 2772 3750 2511 3984 
Q 2250 4219 1831 4219 
Q 1534 4219 1204 4116 
Q 875 4013 500 3803 
L 500 4441 
Q 881 4594 1212 4672 
Q 1544 4750 1819 4750 
Q 2544 4750 2975 4387 
Q 3406 4025 3406 3419 
Q 3406 3131 3298 2873 
Q 3191 2616 2906 2266 
Q 2828 2175 2409 1742 
Q 1991 1309 1228 531 
z
" transform="scale(0.015625)"/>
        <path id="DejaVuSans-30" d="M 2034 4250 
Q 1547 4250 1301 3770 
Q 1056 3291 1056 2328 
Q 1056 1369 1301 889 
Q 1547 409 2034 409 
Q 2525 409 2770 889 
Q 3016 1369 3016 2328 
Q 3016 3291 2770 3770 
Q 2525 4250 2034 4250 
z
M 2034 4750 
Q 2819 4750 3233 4129 
Q 3647 3509 3647 2328 
Q 3647 1150 3233 529 
Q 2819 -91 2034 -91 
Q 1250 -91 836 529 
Q 422 1150 422 2328 
Q 422 3509 836 4129 
Q 1250 4750 2034 4750 
z
" transform="scale(0.015625)"/>
       </defs>
       <use xlink:href="#DejaVuSans-32"/>
       <use xlink:href="#DejaVuSans-30" x="63.623047"/>
       <use xlink:href="#DejaVuSans-30" x="127.246094"/>
      </g>
     </g>
    </g>
    <g id="xtick_2">
     <g id="line2d_3">
      <path d="M 185.879856 173.52 
L 185.879856 7.2 
" clip-path="url(#p62685213ae)" style="fill: none; stroke: #b0b0b0; stroke-width: 0.8; stroke-linecap: square"/>
     </g>
     <g id="line2d_4">
      <g>
       <use xlink:href="#ma0b8d34952" x="185.879856" y="173.52" style="stroke: #000000; stroke-width: 0.8"/>
      </g>
     </g>
     <g id="text_2">
      <!-- 400 -->
      <g transform="translate(176.336106 188.118438)scale(0.1 -0.1)">
       <defs>
        <path id="DejaVuSans-34" d="M 2419 4116 
L 825 1625 
L 2419 1625 
L 2419 4116 
z
M 2253 4666 
L 3047 4666 
L 3047 1625 
L 3713 1625 
L 3713 1100 
L 3047 1100 
L 3047 0 
L 2419 0 
L 2419 1100 
L 313 1100 
L 313 1709 
L 2253 4666 
z
" transform="scale(0.015625)"/>
       </defs>
       <use xlink:href="#DejaVuSans-34"/>
       <use xlink:href="#DejaVuSans-30" x="63.623047"/>
       <use xlink:href="#DejaVuSans-30" x="127.246094"/>
      </g>
     </g>
    </g>
    <g id="xtick_3">
     <g id="line2d_5">
      <path d="M 252.906883 173.52 
L 252.906883 7.2 
" clip-path="url(#p62685213ae)" style="fill: none; stroke: #b0b0b0; stroke-width: 0.8; stroke-linecap: square"/>
     </g>
     <g id="line2d_6">
      <g>
       <use xlink:href="#ma0b8d34952" x="252.906883" y="173.52" style="stroke: #000000; stroke-width: 0.8"/>
      </g>
     </g>
     <g id="text_3">
      <!-- 600 -->
      <g transform="translate(243.363133 188.118438)scale(0.1 -0.1)">
       <defs>
        <path id="DejaVuSans-36" d="M 2113 2584 
Q 1688 2584 1439 2293 
Q 1191 2003 1191 1497 
Q 1191 994 1439 701 
Q 1688 409 2113 409 
Q 2538 409 2786 701 
Q 3034 994 3034 1497 
Q 3034 2003 2786 2293 
Q 2538 2584 2113 2584 
z
M 3366 4563 
L 3366 3988 
Q 3128 4100 2886 4159 
Q 2644 4219 2406 4219 
Q 1781 4219 1451 3797 
Q 1122 3375 1075 2522 
Q 1259 2794 1537 2939 
Q 1816 3084 2150 3084 
Q 2853 3084 3261 2657 
Q 3669 2231 3669 1497 
Q 3669 778 3244 343 
Q 2819 -91 2113 -91 
Q 1303 -91 875 529 
Q 447 1150 447 2328 
Q 447 3434 972 4092 
Q 1497 4750 2381 4750 
Q 2619 4750 2861 4703 
Q 3103 4656 3366 4563 
z
" transform="scale(0.015625)"/>
       </defs>
       <use xlink:href="#DejaVuSans-36"/>
       <use xlink:href="#DejaVuSans-30" x="63.623047"/>
       <use xlink:href="#DejaVuSans-30" x="127.246094"/>
      </g>
     </g>
    </g>
    <g id="xtick_4">
     <g id="line2d_7">
      <path d="M 319.93391 173.52 
L 319.93391 7.2 
" clip-path="url(#p62685213ae)" style="fill: none; stroke: #b0b0b0; stroke-width: 0.8; stroke-linecap: square"/>
     </g>
     <g id="line2d_8">
      <g>
       <use xlink:href="#ma0b8d34952" x="319.93391" y="173.52" style="stroke: #000000; stroke-width: 0.8"/>
      </g>
     </g>
     <g id="text_4">
      <!-- 800 -->
      <g transform="translate(310.39016 188.118438)scale(0.1 -0.1)">
       <defs>
        <path id="DejaVuSans-38" d="M 2034 2216 
Q 1584 2216 1326 1975 
Q 1069 1734 1069 1313 
Q 1069 891 1326 650 
Q 1584 409 2034 409 
Q 2484 409 2743 651 
Q 3003 894 3003 1313 
Q 3003 1734 2745 1975 
Q 2488 2216 2034 2216 
z
M 1403 2484 
Q 997 2584 770 2862 
Q 544 3141 544 3541 
Q 544 4100 942 4425 
Q 1341 4750 2034 4750 
Q 2731 4750 3128 4425 
Q 3525 4100 3525 3541 
Q 3525 3141 3298 2862 
Q 3072 2584 2669 2484 
Q 3125 2378 3379 2068 
Q 3634 1759 3634 1313 
Q 3634 634 3220 271 
Q 2806 -91 2034 -91 
Q 1263 -91 848 271 
Q 434 634 434 1313 
Q 434 1759 690 2068 
Q 947 2378 1403 2484 
z
M 1172 3481 
Q 1172 3119 1398 2916 
Q 1625 2713 2034 2713 
Q 2441 2713 2670 2916 
Q 2900 3119 2900 3481 
Q 2900 3844 2670 4047 
Q 2441 4250 2034 4250 
Q 1625 4250 1398 4047 
Q 1172 3844 1172 3481 
z
" transform="scale(0.015625)"/>
       </defs>
       <use xlink:href="#DejaVuSans-38"/>
       <use xlink:href="#DejaVuSans-30" x="63.623047"/>
       <use xlink:href="#DejaVuSans-30" x="127.246094"/>
      </g>
     </g>
    </g>
    <g id="xtick_5">
     <g id="line2d_9">
      <path d="M 386.960938 173.52 
L 386.960938 7.2 
" clip-path="url(#p62685213ae)" style="fill: none; stroke: #b0b0b0; stroke-width: 0.8; stroke-linecap: square"/>
     </g>
     <g id="line2d_10">
      <g>
       <use xlink:href="#ma0b8d34952" x="386.960938" y="173.52" style="stroke: #000000; stroke-width: 0.8"/>
      </g>
     </g>
     <g id="text_5">
      <!-- 1000 -->
      <g transform="translate(374.235937 188.118438)scale(0.1 -0.1)">
       <defs>
        <path id="DejaVuSans-31" d="M 794 531 
L 1825 531 
L 1825 4091 
L 703 3866 
L 703 4441 
L 1819 4666 
L 2450 4666 
L 2450 531 
L 3481 531 
L 3481 0 
L 794 0 
L 794 531 
z
" transform="scale(0.015625)"/>
       </defs>
       <use xlink:href="#DejaVuSans-31"/>
       <use xlink:href="#DejaVuSans-30" x="63.623047"/>
       <use xlink:href="#DejaVuSans-30" x="127.246094"/>
       <use xlink:href="#DejaVuSans-30" x="190.869141"/>
      </g>
     </g>
    </g>
    <g id="text_6">
     <!-- time -->
     <g transform="translate(208.264844 201.796563)scale(0.1 -0.1)">
      <defs>
       <path id="DejaVuSans-74" d="M 1172 4494 
L 1172 3500 
L 2356 3500 
L 2356 3053 
L 1172 3053 
L 1172 1153 
Q 1172 725 1289 603 
Q 1406 481 1766 481 
L 2356 481 
L 2356 0 
L 1766 0 
Q 1100 0 847 248 
Q 594 497 594 1153 
L 594 3053 
L 172 3053 
L 172 3500 
L 594 3500 
L 594 4494 
L 1172 4494 
z
" transform="scale(0.015625)"/>
       <path id="DejaVuSans-69" d="M 603 3500 
L 1178 3500 
L 1178 0 
L 603 0 
L 603 3500 
z
M 603 4863 
L 1178 4863 
L 1178 4134 
L 603 4134 
L 603 4863 
z
" transform="scale(0.015625)"/>
       <path id="DejaVuSans-6d" d="M 3328 2828 
Q 3544 3216 3844 3400 
Q 4144 3584 4550 3584 
Q 5097 3584 5394 3201 
Q 5691 2819 5691 2113 
L 5691 0 
L 5113 0 
L 5113 2094 
Q 5113 2597 4934 2840 
Q 4756 3084 4391 3084 
Q 3944 3084 3684 2787 
Q 3425 2491 3425 1978 
L 3425 0 
L 2847 0 
L 2847 2094 
Q 2847 2600 2669 2842 
Q 2491 3084 2119 3084 
Q 1678 3084 1418 2786 
Q 1159 2488 1159 1978 
L 1159 0 
L 581 0 
L 581 3500 
L 1159 3500 
L 1159 2956 
Q 1356 3278 1631 3431 
Q 1906 3584 2284 3584 
Q 2666 3584 2933 3390 
Q 3200 3197 3328 2828 
z
" transform="scale(0.015625)"/>
       <path id="DejaVuSans-65" d="M 3597 1894 
L 3597 1613 
L 953 1613 
Q 991 1019 1311 708 
Q 1631 397 2203 397 
Q 2534 397 2845 478 
Q 3156 559 3463 722 
L 3463 178 
Q 3153 47 2828 -22 
Q 2503 -91 2169 -91 
Q 1331 -91 842 396 
Q 353 884 353 1716 
Q 353 2575 817 3079 
Q 1281 3584 2069 3584 
Q 2775 3584 3186 3129 
Q 3597 2675 3597 1894 
z
M 3022 2063 
Q 3016 2534 2758 2815 
Q 2500 3097 2075 3097 
Q 1594 3097 1305 2825 
Q 1016 2553 972 2059 
L 3022 2063 
z
" transform="scale(0.015625)"/>
      </defs>
      <use xlink:href="#DejaVuSans-74"/>
      <use xlink:href="#DejaVuSans-69" x="39.208984"/>
      <use xlink:href="#DejaVuSans-6d" x="66.992188"/>
      <use xlink:href="#DejaVuSans-65" x="164.404297"/>
     </g>
    </g>
   </g>
   <g id="matplotlib.axis_2">
    <g id="ytick_1">
     <g id="line2d_11">
      <path d="M 52.160938 171.046029 
L 386.960938 171.046029 
" clip-path="url(#p62685213ae)" style="fill: none; stroke: #b0b0b0; stroke-width: 0.8; stroke-linecap: square"/>
     </g>
     <g id="line2d_12">
      <defs>
       <path id="m1778f7dc8c" d="M 0 0 
L -3.5 0 
" style="stroke: #000000; stroke-width: 0.8"/>
      </defs>
      <g>
       <use xlink:href="#m1778f7dc8c" x="52.160938" y="171.046029" style="stroke: #000000; stroke-width: 0.8"/>
      </g>
     </g>
     <g id="text_7">
      <!-- −1.5 -->
      <g transform="translate(20.878125 174.845248)scale(0.1 -0.1)">
       <defs>
        <path id="DejaVuSans-2212" d="M 678 2272 
L 4684 2272 
L 4684 1741 
L 678 1741 
L 678 2272 
z
" transform="scale(0.015625)"/>
        <path id="DejaVuSans-2e" d="M 684 794 
L 1344 794 
L 1344 0 
L 684 0 
L 684 794 
z
" transform="scale(0.015625)"/>
        <path id="DejaVuSans-35" d="M 691 4666 
L 3169 4666 
L 3169 4134 
L 1269 4134 
L 1269 2991 
Q 1406 3038 1543 3061 
Q 1681 3084 1819 3084 
Q 2600 3084 3056 2656 
Q 3513 2228 3513 1497 
Q 3513 744 3044 326 
Q 2575 -91 1722 -91 
Q 1428 -91 1123 -41 
Q 819 9 494 109 
L 494 744 
Q 775 591 1075 516 
Q 1375 441 1709 441 
Q 2250 441 2565 725 
Q 2881 1009 2881 1497 
Q 2881 1984 2565 2268 
Q 2250 2553 1709 2553 
Q 1456 2553 1204 2497 
Q 953 2441 691 2322 
L 691 4666 
z
" transform="scale(0.015625)"/>
       </defs>
       <use xlink:href="#DejaVuSans-2212"/>
       <use xlink:href="#DejaVuSans-31" x="83.789062"/>
       <use xlink:href="#DejaVuSans-2e" x="147.412109"/>
       <use xlink:href="#DejaVuSans-35" x="179.199219"/>
      </g>
     </g>
    </g>
    <g id="ytick_2">
     <g id="line2d_13">
      <path d="M 52.160938 145.343812 
L 386.960938 145.343812 
" clip-path="url(#p62685213ae)" style="fill: none; stroke: #b0b0b0; stroke-width: 0.8; stroke-linecap: square"/>
     </g>
     <g id="line2d_14">
      <g>
       <use xlink:href="#m1778f7dc8c" x="52.160938" y="145.343812" style="stroke: #000000; stroke-width: 0.8"/>
      </g>
     </g>
     <g id="text_8">
      <!-- −1.0 -->
      <g transform="translate(20.878125 149.143031)scale(0.1 -0.1)">
       <use xlink:href="#DejaVuSans-2212"/>
       <use xlink:href="#DejaVuSans-31" x="83.789062"/>
       <use xlink:href="#DejaVuSans-2e" x="147.412109"/>
       <use xlink:href="#DejaVuSans-30" x="179.199219"/>
      </g>
     </g>
    </g>
    <g id="ytick_3">
     <g id="line2d_15">
      <path d="M 52.160938 119.641595 
L 386.960938 119.641595 
" clip-path="url(#p62685213ae)" style="fill: none; stroke: #b0b0b0; stroke-width: 0.8; stroke-linecap: square"/>
     </g>
     <g id="line2d_16">
      <g>
       <use xlink:href="#m1778f7dc8c" x="52.160938" y="119.641595" style="stroke: #000000; stroke-width: 0.8"/>
      </g>
     </g>
     <g id="text_9">
      <!-- −0.5 -->
      <g transform="translate(20.878125 123.440814)scale(0.1 -0.1)">
       <use xlink:href="#DejaVuSans-2212"/>
       <use xlink:href="#DejaVuSans-30" x="83.789062"/>
       <use xlink:href="#DejaVuSans-2e" x="147.412109"/>
       <use xlink:href="#DejaVuSans-35" x="179.199219"/>
      </g>
     </g>
    </g>
    <g id="ytick_4">
     <g id="line2d_17">
      <path d="M 52.160938 93.939378 
L 386.960938 93.939378 
" clip-path="url(#p62685213ae)" style="fill: none; stroke: #b0b0b0; stroke-width: 0.8; stroke-linecap: square"/>
     </g>
     <g id="line2d_18">
      <g>
       <use xlink:href="#m1778f7dc8c" x="52.160938" y="93.939378" style="stroke: #000000; stroke-width: 0.8"/>
      </g>
     </g>
     <g id="text_10">
      <!-- 0.0 -->
      <g transform="translate(29.257812 97.738597)scale(0.1 -0.1)">
       <use xlink:href="#DejaVuSans-30"/>
       <use xlink:href="#DejaVuSans-2e" x="63.623047"/>
       <use xlink:href="#DejaVuSans-30" x="95.410156"/>
      </g>
     </g>
    </g>
    <g id="ytick_5">
     <g id="line2d_19">
      <path d="M 52.160938 68.237161 
L 386.960938 68.237161 
" clip-path="url(#p62685213ae)" style="fill: none; stroke: #b0b0b0; stroke-width: 0.8; stroke-linecap: square"/>
     </g>
     <g id="line2d_20">
      <g>
       <use xlink:href="#m1778f7dc8c" x="52.160938" y="68.237161" style="stroke: #000000; stroke-width: 0.8"/>
      </g>
     </g>
     <g id="text_11">
      <!-- 0.5 -->
      <g transform="translate(29.257812 72.03638)scale(0.1 -0.1)">
       <use xlink:href="#DejaVuSans-30"/>
       <use xlink:href="#DejaVuSans-2e" x="63.623047"/>
       <use xlink:href="#DejaVuSans-35" x="95.410156"/>
      </g>
     </g>
    </g>
    <g id="ytick_6">
     <g id="line2d_21">
      <path d="M 52.160938 42.534944 
L 386.960938 42.534944 
" clip-path="url(#p62685213ae)" style="fill: none; stroke: #b0b0b0; stroke-width: 0.8; stroke-linecap: square"/>
     </g>
     <g id="line2d_22">
      <g>
       <use xlink:href="#m1778f7dc8c" x="52.160938" y="42.534944" style="stroke: #000000; stroke-width: 0.8"/>
      </g>
     </g>
     <g id="text_12">
      <!-- 1.0 -->
      <g transform="translate(29.257812 46.334163)scale(0.1 -0.1)">
       <use xlink:href="#DejaVuSans-31"/>
       <use xlink:href="#DejaVuSans-2e" x="63.623047"/>
       <use xlink:href="#DejaVuSans-30" x="95.410156"/>
      </g>
     </g>
    </g>
    <g id="ytick_7">
     <g id="line2d_23">
      <path d="M 52.160938 16.832727 
L 386.960938 16.832727 
" clip-path="url(#p62685213ae)" style="fill: none; stroke: #b0b0b0; stroke-width: 0.8; stroke-linecap: square"/>
     </g>
     <g id="line2d_24">
      <g>
       <use xlink:href="#m1778f7dc8c" x="52.160938" y="16.832727" style="stroke: #000000; stroke-width: 0.8"/>
      </g>
     </g>
     <g id="text_13">
      <!-- 1.5 -->
      <g transform="translate(29.257812 20.631946)scale(0.1 -0.1)">
       <use xlink:href="#DejaVuSans-31"/>
       <use xlink:href="#DejaVuSans-2e" x="63.623047"/>
       <use xlink:href="#DejaVuSans-35" x="95.410156"/>
      </g>
     </g>
    </g>
    <g id="text_14">
     <!-- x -->
     <g transform="translate(14.798438 93.319375)rotate(-90)scale(0.1 -0.1)">
      <defs>
       <path id="DejaVuSans-78" d="M 3513 3500 
L 2247 1797 
L 3578 0 
L 2900 0 
L 1881 1375 
L 863 0 
L 184 0 
L 1544 1831 
L 300 3500 
L 978 3500 
L 1906 2253 
L 2834 3500 
L 3513 3500 
z
" transform="scale(0.015625)"/>
      </defs>
      <use xlink:href="#DejaVuSans-78"/>
     </g>
    </g>
   </g>
   <g id="line2d_25">
    <path d="M 52.160938 90.513745 
L 52.496073 79.899378 
L 52.831208 108.292243 
L 53.166343 85.556371 
L 53.501478 93.514249 
L 53.836613 97.319691 
L 54.171748 76.856492 
L 54.506883 86.680383 
L 54.842019 88.908131 
L 55.512289 73.93566 
L 55.847424 76.286032 
L 56.182559 85.895628 
L 56.517694 87.125498 
L 56.852829 84.827586 
L 57.5231 104.720901 
L 57.858235 99.050843 
L 58.528505 82.265023 
L 58.86364 75.744783 
L 59.198775 79.044984 
L 59.53391 90.436643 
L 59.869046 92.331926 
L 60.539316 69.106071 
L 60.874451 83.352185 
L 61.209586 77.617904 
L 61.544721 94.00752 
L 61.879856 91.69185 
L 62.214992 73.204039 
L 62.550127 85.121901 
L 62.885262 86.507316 
L 63.220397 45.703802 
L 63.555532 73.31474 
L 63.890667 74.67055 
L 64.225802 56.509177 
L 64.560938 92.667001 
L 64.896073 70.466795 
L 65.231208 63.229204 
L 65.566343 81.752606 
L 65.901478 85.717398 
L 66.236613 63.645931 
L 66.571748 75.0088 
L 66.906883 73.176372 
L 67.242019 74.24768 
L 67.577154 69.54751 
L 67.912289 66.783945 
L 68.247424 66.851315 
L 68.582559 80.523732 
L 68.917694 69.034374 
L 69.252829 80.117217 
L 69.587965 75.417784 
L 69.9231 81.372196 
L 70.258235 51.012641 
L 70.59337 67.145107 
L 70.928505 67.352254 
L 71.26364 54.638659 
L 71.598775 70.94906 
L 71.93391 73.394014 
L 72.269046 68.311702 
L 72.604181 67.989493 
L 72.939316 73.257913 
L 73.274451 62.521139 
L 73.944721 74.593583 
L 74.279856 57.913664 
L 74.614992 70.023032 
L 74.950127 45.638914 
L 75.285262 72.499467 
L 75.620397 51.799958 
L 76.290667 64.044428 
L 76.625802 50.306298 
L 76.960938 70.65458 
L 77.296073 60.776184 
L 77.631208 80.80965 
L 77.966343 57.137776 
L 78.301478 42.667812 
L 78.636613 49.761416 
L 78.971748 62.86659 
L 79.306883 54.352407 
L 79.642019 58.233056 
L 79.977154 65.670196 
L 80.647424 45.537099 
L 80.982559 49.095066 
L 81.317694 49.559095 
L 81.652829 61.361011 
L 81.987965 45.138039 
L 82.3231 58.047001 
L 82.658235 55.100799 
L 82.99337 32.286679 
L 83.328505 59.130623 
L 83.66364 68.276087 
L 83.998775 48.165751 
L 84.33391 49.048464 
L 84.669046 58.385487 
L 85.004181 76.328025 
L 85.339316 28.782999 
L 85.674451 39.934085 
L 86.009586 69.221909 
L 86.344721 63.2857 
L 86.679856 50.025329 
L 87.014992 54.408894 
L 87.350127 52.635416 
L 88.020397 54.575048 
L 88.355532 47.447161 
L 88.690667 43.974289 
L 89.025802 43.350161 
L 89.360938 56.402071 
L 90.031208 28.692343 
L 90.366343 45.194122 
L 90.701478 46.041103 
L 91.036613 44.510479 
L 91.371748 48.276997 
L 91.706883 59.272787 
L 92.042019 33.876609 
L 92.377154 39.086929 
L 92.712289 51.265184 
L 93.047424 35.361855 
L 93.382559 34.926524 
L 93.717694 51.13488 
L 94.052829 29.31039 
L 94.387965 45.571783 
L 94.7231 25.452977 
L 95.058235 55.942863 
L 95.39337 19.665698 
L 95.728505 48.622741 
L 96.06364 46.124571 
L 96.398775 27.235199 
L 96.73391 37.354049 
L 97.069046 52.782531 
L 97.404181 54.05499 
L 97.739316 40.48668 
L 98.074451 43.03717 
L 98.409586 64.128493 
L 98.744721 41.653883 
L 99.079856 44.707068 
L 99.414992 56.181927 
L 99.750127 55.46683 
L 100.085262 51.471023 
L 100.420397 30.843734 
L 100.755532 40.95534 
L 101.425802 37.347743 
L 101.760938 47.548943 
L 102.096073 47.798145 
L 102.431208 48.369185 
L 102.766343 40.794808 
L 103.101478 50.290256 
L 103.436613 50.865211 
L 103.771748 42.684483 
L 104.106883 48.205166 
L 104.442019 48.10169 
L 104.777154 55.343598 
L 105.112289 42.360146 
L 105.447424 34.818648 
L 105.782559 33.767943 
L 106.117694 40.731721 
L 106.452829 43.84038 
L 106.787965 48.065867 
L 107.1231 27.900915 
L 107.458235 44.775805 
L 107.79337 50.745389 
L 108.128505 44.383608 
L 108.798775 34.820039 
L 109.13391 30.449172 
L 109.469046 44.219236 
L 109.804181 23.756889 
L 110.139316 40.907555 
L 110.474451 51.406827 
L 110.809586 50.992324 
L 111.144721 38.329406 
L 111.479856 54.23154 
L 111.814992 26.888006 
L 112.150127 60.897302 
L 112.485262 44.257116 
L 112.820397 53.766149 
L 113.490667 45.046041 
L 113.825802 46.907904 
L 114.160938 43.300096 
L 114.496073 35.441401 
L 114.831208 36.338615 
L 115.166343 48.306827 
L 115.836613 36.642326 
L 116.171748 47.82759 
L 116.506883 49.040688 
L 116.842019 38.984569 
L 117.177154 46.401046 
L 117.512289 45.731136 
L 117.847424 44.59574 
L 118.182559 24.152805 
L 118.517694 41.306756 
L 118.852829 41.454469 
L 119.187965 65.197975 
L 119.5231 44.239709 
L 119.858235 55.985635 
L 120.19337 49.900329 
L 120.528505 67.371456 
L 120.86364 54.307128 
L 121.198775 34.251341 
L 121.53391 51.730382 
L 121.869046 38.520523 
L 122.204181 54.474051 
L 122.539316 20.039437 
L 122.874451 57.255919 
L 123.209586 47.738319 
L 123.544721 51.990784 
L 123.879856 50.237393 
L 124.214992 50.1792 
L 124.550127 56.299622 
L 124.885262 54.667478 
L 125.220397 70.381282 
L 125.890667 40.382965 
L 126.225802 61.150619 
L 126.560938 53.558046 
L 126.896073 62.616553 
L 127.231208 54.494188 
L 127.566343 52.651931 
L 127.901478 49.143593 
L 128.236613 52.823401 
L 128.571748 74.798881 
L 129.242019 59.295846 
L 129.577154 54.116091 
L 130.247424 75.810689 
L 130.917694 40.623307 
L 131.252829 75.699356 
L 131.587965 38.156067 
L 131.9231 54.786917 
L 132.258235 49.66094 
L 132.59337 70.434581 
L 132.928505 46.591528 
L 133.26364 57.786848 
L 133.598775 58.897276 
L 133.93391 58.084783 
L 134.269046 45.865303 
L 134.604181 49.507856 
L 134.939316 63.189152 
L 135.274451 61.570775 
L 135.944721 70.519674 
L 136.279856 64.065587 
L 136.614992 67.175351 
L 136.950127 61.65909 
L 137.620397 81.875664 
L 137.955532 65.746442 
L 138.290667 64.621797 
L 138.625802 69.84817 
L 138.960938 85.851671 
L 139.296073 68.507765 
L 139.631208 76.000653 
L 139.966343 59.343279 
L 140.301478 59.164314 
L 140.636613 80.464634 
L 140.971748 72.832827 
L 141.306883 68.19869 
L 141.642019 70.227386 
L 141.977154 60.870651 
L 142.312289 86.659871 
L 142.647424 59.915305 
L 142.982559 70.967968 
L 143.317694 78.061443 
L 143.652829 75.551038 
L 143.987965 84.851877 
L 144.3231 90.079422 
L 144.658235 74.503194 
L 144.99337 84.076786 
L 145.328505 75.668986 
L 145.66364 61.753055 
L 145.998775 72.752681 
L 146.33391 78.73278 
L 146.669046 73.598286 
L 147.004181 73.115684 
L 147.339316 86.606919 
L 147.674451 70.451589 
L 148.009586 82.958225 
L 148.344721 82.722584 
L 148.679856 76.277156 
L 149.014992 109.971255 
L 149.350127 79.1795 
L 149.685262 82.722477 
L 150.020397 99.105017 
L 150.690667 72.122939 
L 151.025802 100.026199 
L 151.360938 63.924217 
L 152.031208 109.269593 
L 152.366343 82.726708 
L 152.701478 99.065198 
L 153.036613 96.916762 
L 153.371748 98.307456 
L 153.706883 81.496178 
L 154.042019 117.159311 
L 154.377154 108.070421 
L 154.712289 108.758858 
L 155.047424 92.849417 
L 155.382559 102.63511 
L 156.052829 72.302799 
L 156.387965 97.890338 
L 156.7231 99.346967 
L 157.058235 93.538893 
L 157.39337 96.487953 
L 157.728505 96.761947 
L 158.06364 113.976208 
L 158.398775 77.760873 
L 158.73391 93.358933 
L 159.069046 94.001513 
L 159.404181 109.805105 
L 159.739316 94.433837 
L 160.074451 116.957204 
L 160.409586 104.715411 
L 160.744721 110.591881 
L 161.079856 105.181494 
L 161.414992 89.829683 
L 161.750127 108.665416 
L 162.420397 98.432562 
L 162.755532 123.894106 
L 163.090667 86.537127 
L 163.425802 93.171384 
L 163.760938 106.223586 
L 164.431208 115.050184 
L 164.766343 77.61882 
L 165.101478 111.139309 
L 165.436613 102.776441 
L 165.771748 121.002347 
L 166.106883 94.734021 
L 166.442019 118.429187 
L 166.777154 103.671608 
L 167.112289 124.917864 
L 167.447424 101.600574 
L 167.782559 110.338257 
L 168.117694 86.907282 
L 168.452829 105.652815 
L 168.787965 116.394676 
L 169.1231 120.022229 
L 169.458235 119.724567 
L 169.79337 108.358089 
L 170.128505 116.241357 
L 170.46364 104.960498 
L 170.798775 98.684508 
L 171.13391 105.250967 
L 171.804181 123.784934 
L 172.139316 99.218569 
L 172.474451 104.60166 
L 172.809586 107.24562 
L 173.144721 107.053619 
L 173.479856 133.501418 
L 173.814992 122.288367 
L 174.485262 127.025584 
L 174.820397 102.466722 
L 175.155532 127.295714 
L 175.825802 110.741957 
L 176.160938 116.544829 
L 176.496073 117.341331 
L 176.831208 118.436298 
L 177.166343 137.284949 
L 177.501478 113.501271 
L 177.836613 137.377058 
L 178.171748 132.879082 
L 178.506883 114.533858 
L 179.177154 147.893987 
L 179.512289 131.741121 
L 179.847424 122.578253 
L 180.517694 126.489952 
L 180.852829 124.870358 
L 181.187965 130.810464 
L 181.5231 141.820357 
L 181.858235 139.699097 
L 182.19337 135.836201 
L 182.528505 117.61138 
L 182.86364 124.864962 
L 183.198775 113.422365 
L 183.53391 143.106294 
L 183.869046 133.201433 
L 184.204181 140.274665 
L 184.539316 130.845932 
L 184.874451 137.928233 
L 185.209586 136.582623 
L 185.544721 132.735837 
L 185.879856 132.965862 
L 186.214992 143.864093 
L 186.550127 150.668014 
L 186.885262 128.481221 
L 187.220397 135.186488 
L 187.555532 133.489818 
L 187.890667 132.965697 
L 188.225802 148.268726 
L 188.560938 129.826656 
L 188.896073 121.512923 
L 189.231208 136.471001 
L 189.566343 142.524883 
L 190.236613 126.776614 
L 190.571748 144.779507 
L 190.906883 136.851833 
L 191.242019 143.373859 
L 191.577154 123.014537 
L 191.912289 129.006776 
L 192.247424 154.159033 
L 192.582559 144.900796 
L 192.917694 126.14501 
L 193.252829 116.840816 
L 193.587965 130.526115 
L 193.9231 128.604924 
L 194.258235 137.254601 
L 194.59337 133.124519 
L 194.928505 156.505389 
L 195.26364 124.428117 
L 195.598775 139.126159 
L 195.93391 144.562412 
L 196.269046 147.699825 
L 196.604181 130.745419 
L 196.939316 131.927758 
L 197.274451 136.193751 
L 197.609586 151.123027 
L 197.944721 130.437064 
L 198.279856 127.990518 
L 198.614992 153.469597 
L 198.950127 141.034799 
L 199.285262 137.545342 
L 199.955532 148.313073 
L 200.290667 147.562297 
L 200.625802 153.874166 
L 200.960938 137.17973 
L 201.296073 136.616051 
L 201.631208 138.586457 
L 201.966343 159.866259 
L 202.301478 137.348836 
L 202.636613 160.959277 
L 202.971748 160.131994 
L 203.306883 140.269527 
L 203.642019 138.866912 
L 203.977154 135.563249 
L 204.312289 136.263504 
L 204.647424 149.609335 
L 204.982559 143.319054 
L 205.317694 159.022559 
L 205.652829 159.866528 
L 205.987965 128.43505 
L 206.3231 142.391914 
L 206.658235 146.212146 
L 206.99337 154.338948 
L 207.328505 152.395005 
L 207.66364 144.979978 
L 207.998775 140.045758 
L 208.33391 142.976331 
L 208.669046 159.294478 
L 209.004181 138.49729 
L 209.339316 127.705256 
L 209.674451 143.847045 
L 210.009586 136.880233 
L 210.344721 146.286593 
L 210.679856 149.273907 
L 211.014992 149.414671 
L 211.350127 133.368418 
L 211.685262 139.799601 
L 212.020397 143.985888 
L 212.355532 162.151936 
L 212.690667 149.052537 
L 213.025802 162.39539 
L 213.360938 159.068242 
L 213.696073 133.734906 
L 214.031208 126.854264 
L 214.366343 152.248126 
L 214.701478 141.762289 
L 215.036613 147.096081 
L 215.371748 165.96 
L 215.706883 134.263929 
L 216.042019 116.365541 
L 216.377154 134.597982 
L 216.712289 132.740889 
L 217.047424 156.407471 
L 217.382559 127.347387 
L 217.717694 139.680046 
L 218.052829 137.191842 
L 218.387965 138.572587 
L 218.7231 151.862614 
L 219.058235 140.402597 
L 219.39337 135.048553 
L 219.728505 142.626395 
L 220.06364 153.210621 
L 220.73391 129.449614 
L 221.069046 148.973579 
L 221.404181 138.12098 
L 221.739316 135.659932 
L 222.074451 152.527453 
L 222.409586 143.588926 
L 222.744721 154.591625 
L 223.079856 132.612525 
L 223.414992 137.989301 
L 223.750127 145.977717 
L 224.085262 145.370995 
L 224.420397 125.955616 
L 224.755532 146.385651 
L 225.090667 139.738776 
L 225.425802 127.509886 
L 225.760938 142.044675 
L 226.096073 146.132924 
L 226.431208 130.119373 
L 227.101478 159.3605 
L 227.436613 131.931625 
L 227.771748 137.499848 
L 228.106883 140.19875 
L 228.442019 117.281368 
L 229.112289 149.485381 
L 229.447424 138.34849 
L 229.782559 135.494525 
L 230.117694 126.800345 
L 230.452829 115.035724 
L 230.787965 128.431539 
L 231.1231 128.482483 
L 231.458235 130.505436 
L 231.79337 113.860294 
L 232.128505 135.345222 
L 232.46364 136.562024 
L 232.798775 139.542147 
L 233.13391 140.128466 
L 233.469046 137.605441 
L 233.804181 108.3619 
L 234.139316 116.397612 
L 234.474451 120.249092 
L 234.809586 121.4808 
L 235.144721 108.7832 
L 235.479856 133.779694 
L 235.814992 126.569725 
L 236.150127 138.463762 
L 236.485262 118.63543 
L 236.820397 144.3477 
L 237.155532 139.359545 
L 237.490667 131.921569 
L 237.825802 104.354017 
L 238.160938 115.451181 
L 238.496073 140.367392 
L 238.831208 116.892956 
L 239.166343 139.423597 
L 239.501478 136.613624 
L 239.836613 125.535929 
L 240.171748 122.319858 
L 240.506883 128.917266 
L 240.842019 126.217898 
L 241.177154 120.978856 
L 241.512289 129.795824 
L 241.847424 145.323725 
L 242.182559 106.273783 
L 242.517694 112.463147 
L 242.852829 113.462297 
L 243.187965 125.374073 
L 243.5231 129.973732 
L 243.858235 119.470253 
L 244.19337 118.31602 
L 244.528505 122.60186 
L 244.86364 117.733725 
L 245.198775 114.981385 
L 245.53391 124.296481 
L 245.869046 125.670222 
L 246.204181 110.810853 
L 246.539316 113.021656 
L 246.874451 113.709136 
L 247.209586 113.027291 
L 247.544721 107.605189 
L 247.879856 117.523635 
L 248.214992 113.695626 
L 248.550127 104.502408 
L 248.885262 127.220938 
L 249.220397 108.435588 
L 249.555532 122.643254 
L 249.890667 111.634312 
L 250.225802 112.244052 
L 250.560938 134.417528 
L 250.896073 106.735933 
L 251.231208 107.169037 
L 251.566343 95.002627 
L 251.901478 126.740291 
L 252.236613 108.365143 
L 252.571748 100.42129 
L 252.906883 112.429551 
L 253.242019 106.172079 
L 253.577154 92.254018 
L 253.912289 120.149309 
L 254.247424 83.349991 
L 254.582559 124.629854 
L 254.917694 101.715091 
L 255.252829 107.920705 
L 255.587965 80.989387 
L 255.9231 94.140082 
L 256.258235 88.660841 
L 256.59337 109.212889 
L 256.928505 104.565584 
L 257.26364 92.53982 
L 257.598775 92.104075 
L 257.93391 102.569497 
L 258.269046 124.367467 
L 258.604181 92.00875 
L 258.939316 88.35257 
L 259.274451 95.034685 
L 259.609586 98.043248 
L 259.944721 112.32845 
L 260.279856 101.108579 
L 260.614992 108.490059 
L 260.950127 95.116166 
L 261.285262 95.909882 
L 261.620397 90.899868 
L 261.955532 98.209462 
L 262.290667 126.562433 
L 262.625802 87.549393 
L 262.960938 77.527824 
L 263.296073 90.887641 
L 263.631208 71.252594 
L 263.966343 95.482982 
L 264.301478 104.933585 
L 264.636613 92.373595 
L 264.971748 94.31166 
L 265.306883 83.262806 
L 265.642019 81.049062 
L 265.977154 80.612277 
L 266.312289 100.214422 
L 266.647424 101.970133 
L 266.982559 102.625697 
L 267.317694 105.076527 
L 267.652829 85.63336 
L 267.987965 90.563421 
L 268.658235 68.069971 
L 268.99337 96.646559 
L 269.328505 94.293233 
L 269.66364 62.036665 
L 269.998775 82.277091 
L 270.33391 94.351389 
L 270.669046 86.094228 
L 271.004181 90.620697 
L 271.339316 73.360844 
L 271.674451 79.327633 
L 272.009586 80.720743 
L 272.344721 84.656426 
L 272.679856 75.82053 
L 273.014992 81.346927 
L 273.350127 68.076105 
L 273.685262 65.831074 
L 274.020397 76.242493 
L 274.355532 78.122101 
L 274.690667 72.207682 
L 275.025802 77.971132 
L 275.360937 76.66791 
L 275.696073 66.915308 
L 276.031208 87.789548 
L 276.366343 81.552267 
L 276.701478 79.345561 
L 277.036613 66.169061 
L 277.371748 72.205548 
L 277.706883 60.906193 
L 278.042019 62.305137 
L 278.377154 67.643356 
L 278.712289 80.357761 
L 279.047424 100.499343 
L 279.382559 56.456009 
L 279.717694 78.207172 
L 280.052829 75.666907 
L 280.387965 68.625292 
L 280.7231 58.185871 
L 281.058235 71.52316 
L 281.39337 59.891486 
L 281.728505 59.937325 
L 282.06364 69.582359 
L 282.398775 51.918441 
L 282.73391 66.576657 
L 283.069046 59.242656 
L 283.404181 69.326233 
L 283.739316 56.003722 
L 284.074451 72.409309 
L 284.409586 66.272122 
L 284.744721 46.894108 
L 285.079856 56.054917 
L 285.414992 74.53052 
L 285.750127 68.401321 
L 286.085262 73.72424 
L 286.420397 41.223932 
L 287.090667 60.175118 
L 287.425802 61.880729 
L 287.760938 69.925029 
L 288.096073 38.352668 
L 288.431208 73.520865 
L 288.766343 50.055361 
L 289.101478 39.743471 
L 289.436613 50.271461 
L 289.771748 55.018156 
L 290.106883 67.901929 
L 290.442019 56.572292 
L 290.777154 58.348242 
L 291.112289 55.055762 
L 291.447424 65.355277 
L 292.117694 49.089196 
L 292.452829 52.818952 
L 292.787965 77.212492 
L 293.1231 49.454537 
L 293.458235 61.335056 
L 293.79337 65.228761 
L 294.128505 43.958369 
L 294.46364 48.415119 
L 294.798775 48.215782 
L 295.13391 38.137346 
L 295.469046 58.02601 
L 295.804181 42.58147 
L 296.139316 46.942619 
L 296.474451 40.183502 
L 296.809586 40.347613 
L 297.144721 59.056966 
L 297.479856 36.923504 
L 297.814992 33.493597 
L 298.150127 42.266432 
L 298.485262 64.984602 
L 298.820397 44.873076 
L 299.155532 35.506216 
L 299.490667 56.532022 
L 299.825802 37.859563 
L 300.160938 48.809418 
L 300.496073 48.557124 
L 300.831208 42.667401 
L 301.166343 43.231749 
L 301.501478 48.71769 
L 302.171748 31.906603 
L 302.506883 27.243282 
L 302.842019 48.647201 
L 303.177154 18.419249 
L 303.512289 56.614871 
L 303.847424 65.172562 
L 304.182559 26.120617 
L 304.517694 59.113293 
L 304.852829 45.805136 
L 305.187965 44.044745 
L 305.858235 48.535875 
L 306.19337 59.681875 
L 306.528505 58.072487 
L 306.86364 35.511547 
L 307.198775 56.298629 
L 307.53391 50.454379 
L 307.869046 50.546377 
L 308.204181 25.955072 
L 308.539316 40.332913 
L 308.874451 42.477391 
L 309.209586 55.080424 
L 309.544721 39.661131 
L 309.879856 52.592288 
L 310.214992 14.76 
L 310.550127 52.607608 
L 310.885262 50.742834 
L 311.220397 34.24582 
L 311.555532 38.301794 
L 311.890667 28.688826 
L 312.225802 26.762402 
L 312.560938 43.553907 
L 313.231208 29.941452 
L 313.566343 45.319648 
L 313.901478 44.87681 
L 314.236613 29.880099 
L 314.571748 51.500188 
L 314.906883 40.286953 
L 315.242019 37.951242 
L 315.577154 51.18103 
L 315.912289 51.594598 
L 316.582559 61.191195 
L 316.917694 69.354532 
L 317.252829 27.745536 
L 317.587965 40.137433 
L 317.9231 42.418349 
L 318.258235 40.174599 
L 318.59337 49.070319 
L 318.928505 46.630149 
L 319.26364 29.517586 
L 319.598775 48.921053 
L 319.93391 30.992047 
L 320.269046 57.818125 
L 320.604181 42.163318 
L 320.939316 46.874961 
L 321.274451 57.04098 
L 321.609586 51.40528 
L 321.944721 38.488664 
L 322.279856 29.98681 
L 322.614992 48.36457 
L 322.950127 46.882275 
L 323.285262 49.474674 
L 323.620397 54.035512 
L 323.955532 48.714794 
L 324.290667 73.459514 
L 324.625802 54.732032 
L 324.960938 54.775314 
L 325.296073 40.15961 
L 325.631208 38.896953 
L 325.966343 52.816115 
L 326.301478 41.022661 
L 326.636613 61.677446 
L 326.971748 29.640695 
L 327.306883 52.673574 
L 327.642019 48.912299 
L 327.977154 31.693482 
L 328.312289 37.112561 
L 328.647424 44.543665 
L 328.982559 59.478227 
L 329.317694 68.599048 
L 329.652829 27.978757 
L 329.987965 49.56658 
L 330.3231 56.596135 
L 330.658235 37.922515 
L 330.99337 49.730516 
L 331.328505 70.457449 
L 331.66364 50.49792 
L 331.998775 48.199467 
L 332.33391 44.315187 
L 332.669046 48.472553 
L 333.004181 51.240436 
L 333.674451 42.911974 
L 334.009586 43.987397 
L 334.344721 52.543642 
L 334.679856 57.353046 
L 335.014992 54.968192 
L 335.350127 58.121372 
L 335.685262 59.322398 
L 336.020397 54.912643 
L 336.355532 70.644262 
L 336.690667 40.551727 
L 337.360937 59.577674 
L 337.696073 31.388601 
L 338.031208 39.10459 
L 338.366343 56.978335 
L 338.701478 47.919165 
L 339.036613 43.973159 
L 339.371748 34.641657 
L 339.706883 62.723105 
L 340.042019 63.635937 
L 340.377154 63.385413 
L 340.712289 68.743707 
L 341.047424 53.585848 
L 341.382559 46.456304 
L 341.717694 54.903157 
L 342.052829 42.531328 
L 342.387965 70.816213 
L 342.7231 62.138094 
L 343.058235 49.262808 
L 343.39337 48.09567 
L 343.728505 72.576916 
L 344.06364 77.58847 
L 344.398775 61.523795 
L 344.73391 59.911015 
L 345.069046 79.678485 
L 345.404181 54.80837 
L 345.739316 61.572797 
L 346.074451 53.059499 
L 346.409586 51.555299 
L 346.744721 38.028705 
L 347.079856 69.687008 
L 347.414992 77.735735 
L 347.750127 60.480431 
L 348.085262 49.49754 
L 348.755532 59.789043 
L 349.090667 75.368065 
L 349.425802 41.506942 
L 350.096073 77.01931 
L 350.431208 73.042202 
L 350.766343 65.377687 
L 351.436613 80.730808 
L 351.771748 63.57289 
L 352.106883 90.388651 
L 352.442019 64.179636 
L 352.777154 81.003055 
L 353.112289 39.358891 
L 353.782559 76.732661 
L 354.117694 80.272078 
L 354.452829 76.184139 
L 354.787965 66.108649 
L 355.1231 79.650517 
L 355.458235 85.823977 
L 355.79337 67.226792 
L 356.128505 68.07673 
L 356.46364 63.204708 
L 357.13391 89.500615 
L 357.469046 72.778019 
L 357.804181 96.916392 
L 358.139316 58.017698 
L 358.474451 99.653745 
L 358.809586 82.492048 
L 359.144721 85.706044 
L 359.479856 76.437523 
L 359.814992 71.819928 
L 360.150127 73.084496 
L 360.485262 76.263602 
L 360.820397 77.048755 
L 361.155532 76.744188 
L 361.490667 75.962064 
L 361.825802 95.336079 
L 362.496073 75.589055 
L 362.831208 93.358999 
L 363.501478 63.821403 
L 363.836613 83.375527 
L 364.171748 85.644109 
L 364.506883 75.396971 
L 364.842019 83.183742 
L 365.177154 108.941068 
L 365.512289 80.869859 
L 365.847424 107.316913 
L 366.182559 80.206986 
L 366.517694 100.272822 
L 366.852829 97.55555 
L 367.187965 97.491779 
L 367.5231 96.612896 
L 367.858235 104.602443 
L 368.19337 82.276242 
L 368.528505 74.693471 
L 368.86364 101.070733 
L 369.53391 105.524877 
L 369.869046 103.522113 
L 370.204181 96.781748 
L 370.539316 100.99065 
L 370.874451 91.524033 
L 371.209586 86.285517 
L 371.544721 116.247558 
L 371.879856 103.655005 
L 372.214992 108.685952 
L 372.550127 117.843848 
L 372.885262 106.995314 
L 373.220397 110.031682 
L 373.555532 86.184976 
L 373.890667 94.366577 
L 374.225802 105.27333 
L 374.560938 109.162821 
L 374.896073 107.485164 
L 375.231208 126.282937 
L 375.566343 96.928302 
L 375.901478 116.099452 
L 376.236613 94.712506 
L 376.571748 91.407394 
L 376.906883 131.466145 
L 377.242019 90.166203 
L 377.577154 116.394324 
L 377.912289 116.056874 
L 378.247424 105.427337 
L 378.582559 118.450853 
L 378.917694 102.584637 
L 379.252829 102.68562 
L 379.587965 113.062958 
L 379.9231 113.341759 
L 380.258235 114.462267 
L 380.59337 98.988466 
L 380.928505 109.456178 
L 381.26364 129.594026 
L 381.598775 124.894416 
L 381.93391 129.321029 
L 382.269046 107.687823 
L 382.604181 127.082399 
L 382.939316 125.292462 
L 383.274451 115.38561 
L 383.609586 115.598298 
L 383.944721 101.033408 
L 384.279856 101.635439 
L 384.950127 128.100256 
L 385.285262 106.222759 
L 385.620397 122.741156 
L 385.955532 121.799622 
L 386.290667 119.022079 
L 386.625802 127.581528 
L 386.960938 129.927212 
L 386.960938 129.927212 
" clip-path="url(#p62685213ae)" style="fill: none; stroke: #1f77b4; stroke-width: 1.5; stroke-linecap: square"/>
   </g>
   <g id="patch_3">
    <path d="M 52.160938 173.52 
L 52.160938 7.2 
" style="fill: none; stroke: #000000; stroke-width: 0.8; stroke-linejoin: miter; stroke-linecap: square"/>
   </g>
   <g id="patch_4">
    <path d="M 386.960938 173.52 
L 386.960938 7.2 
" style="fill: none; stroke: #000000; stroke-width: 0.8; stroke-linejoin: miter; stroke-linecap: square"/>
   </g>
   <g id="patch_5">
    <path d="M 52.160938 173.52 
L 386.960938 173.52 
" style="fill: none; stroke: #000000; stroke-width: 0.8; stroke-linejoin: miter; stroke-linecap: square"/>
   </g>
   <g id="patch_6">
    <path d="M 52.160938 7.2 
L 386.960938 7.2 
" style="fill: none; stroke: #000000; stroke-width: 0.8; stroke-linejoin: miter; stroke-linecap: square"/>
   </g>
  </g>
 </g>
 <defs>
  <clipPath id="p62685213ae">
   <rect x="52.160938" y="7.2" width="334.8" height="166.32"/>
  </clipPath>
 </defs>
</svg>
